<svg xmlns="http://www.w3.org/2000/svg" xmlns:xlink="http://www.w3.org/1999/xlink" version="1.1" viewBox="0 0 1080 1350">
  <!-- Generator: Adobe Illustrator 30.2.1, SVG Export Plug-In . SVG Version: 2.1.1 Build 1)  -->
  <defs>
    <style>
      .st0 {
        fill: none;
      }

      .st1 {
        fill: url(#radial-gradient);
        opacity: .25;
      }

      .st1, .st2, .st3 {
        mix-blend-mode: multiply;
      }

      .st4 {
        fill: #2d353b;
      }

      .st5 {
        isolation: isolate;
      }

      .st6 {
        clip-path: url(#clippath-1);
      }

      .st7 {
        clip-path: url(#clippath-2);
      }

      .st2 {
        fill: url(#linear-gradient1);
      }

      .st2, .st8 {
        opacity: .3;
      }

      .st9, .st10, .st11, .st12, .st13 {
        fill: #fff;
      }

      .st10, .st11 {
        font-size: 50px;
      }

      .st10, .st12, .st13 {
        font-family: 'Harmonia Sans Pro Cyr'; font-weight: 400;
      }

      .st11 {
        font-family: 'Harmonia Sans Pro Cyr'; font-weight: 600;
        letter-spacing: .08em;
      }

      .st12 {
        font-size: 40px;
      }

      .st3 {
        fill: url(#linear-gradient);
        opacity: .2;
      }

      .st13 {
        font-size: 32px;
        letter-spacing: .05em;
      }

      .st14 {
        clip-path: url(#clippath);
      }
    </style>
    <clipPath id="clippath">
      <rect class="st0" width="1080" height="1349.97"/>
    </clipPath>
    <clipPath id="clippath-1">
      <rect class="st0" x="-16.72" y="-.03" width="1104.33" height="1352.86"/>
    </clipPath>
    <radialGradient id="radial-gradient" cx="576.67" cy="751.26" fx="576.67" fy="751.26" r="561.19" gradientTransform="translate(-14.14 555.19) scale(.95 .81)" gradientUnits="userSpaceOnUse">
      <stop offset="0" stop-color="#000"/>
      <stop offset="1" stop-color="#fff"/>
    </radialGradient>
    <linearGradient id="linear-gradient" x1="5371.77" y1="1474.72" x2="5371.77" y2="1846.66" gradientTransform="translate(-4836.32 -1624.18)" gradientUnits="userSpaceOnUse">
      <stop offset="0" stop-color="#fff"/>
      <stop offset=".12" stop-color="#c5c5c5"/>
      <stop offset=".24" stop-color="#919191"/>
      <stop offset=".37" stop-color="#656565"/>
      <stop offset=".5" stop-color="#404040"/>
      <stop offset=".62" stop-color="#242424"/>
      <stop offset=".75" stop-color="#101010"/>
      <stop offset=".88" stop-color="#040404"/>
      <stop offset="1" stop-color="#000"/>
    </linearGradient>
    <linearGradient id="linear-gradient1" x1="521.03" y1="962.63" x2="521.03" y2="1352.83" gradientTransform="matrix(1,0,0,1,0,0)" xlink:href="#linear-gradient"/>
    <clipPath id="clippath-2">
      <rect class="st0" x="479.16" y="35.39" width="121.69" height="73.96"/>
    </clipPath>
  </defs>
  <g class="st5">
    <g id="Layer_1">
      <g class="st14">
        <image width="6000" height="4000" transform="translate(-416.42 -.03) scale(.34)" xlink:href="" id="background"/>
        <g class="st8">
          <g class="st6">
            <rect class="st1" x="-5.7" y="713.9" width="1082.29" height="894.41"/>
            <rect class="st3" x="-41.8" y="-149.46" width="1154.5" height="371.94" transform="translate(1070.89 73.02) rotate(180)"/>
          </g>
        </g>
        <rect class="st2" x="-70" y="962.63" width="1182.05" height="390.2"/>
      </g>
      <text class="st10" transform="translate(540 1176.6)" id="price" text-anchor="middle"><tspan x="0" y="0">$1,199,000</tspan></text>
      <text class="st12" transform="translate(540 1235.86)" id="street_address" text-anchor="middle"><tspan x="0" y="0">2462 Ridge Road East</tspan></text>
      <rect class="st4" x="357.55" y="1046.51" width="364.89" height="67.27"/>
      <text class="st11" transform="translate(387.43 1097.61)"><tspan x="0" y="0">JUST LISTED</tspan></text>
      <g>
        <polygon class="st9" points="504.4 58.61 494.26 58.61 494.26 51.51 507.64 51.51 507.64 47.6 489.81 47.6 489.81 75.46 494.26 75.46 494.26 62.49 504.4 62.49 504.4 58.61 504.4 58.61"/>
        <path class="st9" d="M514.13,65.29l4.13-11.92,4.2,11.92h-8.33ZM516.35,47.6l-10.34,27.86h4.64l2.36-6.59h10.55l2.43,6.59h4.64l-10.16-27.86h-4.12Z"/>
        <path class="st9" d="M552.88,62.05c1.02-1.47,1.58-3.35,1.58-5.31,0-3.12-1.39-6.02-3.69-7.53-1.47-1.02-3.73-1.62-8.09-1.62h-7.87v27.86h4.44v-23.94h3.8c2,0,3.54.15,4.74.9,1.47.98,2.37,2.82,2.37,4.71s-.64,3.43-1.92,4.56c-1.32,1.13-3.65,1.2-5.57,1.2h-.98l7.64,12.57h4.71l-6.55-10.35c2.15-.38,3.95-1.05,5.38-3.05h0Z"/>
        <polygon class="st9" points="561.03 75.46 565.47 75.46 565.47 47.6 561.03 47.6 561.03 75.46 561.03 75.46"/>
        <g class="st7">
          <path class="st9" d="M581.18,75.99c5.95,0,9-3.92,9-8.43s-3.24-6.29-6.7-7.76c-4.48-1.66-6.55-2.33-6.55-5.05,0-2.37,1.96-3.93,4.22-3.93,3.2,0,3.88,2.46,4.18,3.9h4.37c-.34-5.57-4.82-7.67-8.4-7.67-4.37,0-8.81,2.83-8.77,8.02,0,5.23,4.86,6.85,7.04,7.57,3.58,1.32,6.21,2.03,6.21,5.12,0,2.48-2.15,4.49-4.63,4.49-1.47,0-4.4-.84-4.71-4.96h-4.4c.06,4.33,2.1,8.68,9.15,8.68h0Z"/>
          <polygon class="st9" points="600.84 87.7 572.04 87.7 572.04 85.84 598.99 85.84 598.99 37.24 481 37.24 481 85.84 508.47 85.84 508.47 87.7 479.14 87.7 479.14 35.39 600.84 35.39 600.84 87.7 600.84 87.7"/>
        </g>
        <path class="st9" d="M481.59,103.94h-.79v2.15h.84c.68,0,1-.47,1-1.06,0-.72-.38-1.09-1.05-1.09h0ZM483.74,109.21h-.78l-1.46-2.48h-.69v2.48h-.69v-5.91h1.53c1.29,0,1.71.92,1.71,1.73s-.53,1.45-1.13,1.61l1.52,2.56h0Z"/>
        <polygon class="st9" points="488.93 103.94 486.88 103.94 486.88 105.83 488.84 105.83 488.84 106.47 486.88 106.47 486.88 108.57 488.99 108.57 488.99 109.21 486.19 109.21 486.19 103.3 488.93 103.3 488.93 103.94 488.93 103.94"/>
        <path class="st9" d="M492.77,106.97h1.73l-.51-1.68c-.1-.32-.23-.79-.33-1.13h-.03c-.1.36-.22.81-.32,1.14l-.54,1.67h0ZM493.36,103.3h.63l1.95,5.91h-.75l-.48-1.6h-2.12l-.51,1.6h-.72l2.01-5.91h0Z"/>
        <polygon class="st9" points="498.47 103.3 499.17 103.3 499.17 108.57 501.28 108.57 501.28 109.21 498.47 109.21 498.47 103.3 498.47 103.3"/>
        <polygon class="st9" points="510.66 103.94 508.62 103.94 508.62 105.83 510.58 105.83 510.58 106.47 508.62 106.47 508.62 108.57 510.73 108.57 510.73 109.21 507.93 109.21 507.93 103.3 510.66 103.3 510.66 103.94 510.66 103.94"/>
        <path class="st9" d="M515.84,104.53c-.05-.48-.34-.74-.82-.74-.54,0-.87.31-.87.82s.17.8,1.15,1.22c1.01.44,1.34,1.07,1.34,1.9,0,.78-.55,1.62-1.71,1.62-1.1,0-1.67-.65-1.72-1.58h.71c.02.65.41.95,1.01.95.69,0,1-.47,1-.96,0-.62-.22-1.02-1.07-1.37-1.14-.47-1.43-1.1-1.43-1.77,0-.87.68-1.46,1.56-1.46,1.11,0,1.52.69,1.55,1.37h-.71Z"/>
        <polygon class="st9" points="520.13 103.94 518.88 103.94 518.88 103.3 522.07 103.3 522.07 103.94 520.82 103.94 520.82 109.21 520.13 109.21 520.13 103.94 520.13 103.94"/>
        <path class="st9" d="M525.12,106.97h1.73l-.51-1.68c-.1-.32-.23-.79-.33-1.13h-.03c-.1.36-.22.81-.32,1.14l-.54,1.67h0ZM525.71,103.3h.63l1.95,5.91h-.75l-.48-1.6h-2.12l-.51,1.6h-.72l2.01-5.91h0Z"/>
        <polygon class="st9" points="531.17 103.94 529.92 103.94 529.92 103.3 533.11 103.3 533.11 103.94 531.86 103.94 531.86 109.21 531.17 109.21 531.17 103.94 531.17 103.94"/>
        <polygon class="st9" points="538.45 103.94 536.4 103.94 536.4 105.83 538.36 105.83 538.36 106.47 536.4 106.47 536.4 108.57 538.51 108.57 538.51 109.21 535.71 109.21 535.71 103.3 538.45 103.3 538.45 103.94 538.45 103.94"/>
        <path class="st9" d="M546.97,106.47h-.83v2.1h.85c.75,0,1.13-.37,1.13-1.03s-.4-1.07-1.14-1.07h0ZM546.81,103.94h-.67v1.89h.71c.57,0,.98-.39.98-.97s-.38-.92-1.02-.92h0ZM545.45,103.3h1.39c1.07,0,1.7.59,1.7,1.5,0,.67-.41,1.07-.87,1.26v.02c.78.14,1.17.74,1.17,1.47,0,.94-.61,1.66-1.81,1.66h-1.58v-5.91h0Z"/>
        <path class="st9" d="M553.16,103.94h-.79v2.15h.84c.68,0,1-.47,1-1.06,0-.72-.38-1.09-1.05-1.09h0ZM555.31,109.21h-.78l-1.46-2.48h-.69v2.48h-.69v-5.91h1.53c1.29,0,1.71.92,1.71,1.73s-.53,1.45-1.13,1.61l1.52,2.56h0Z"/>
        <path class="st9" d="M559.82,108.72c.94,0,1.67-.82,1.67-2.47s-.68-2.47-1.67-2.47c-.94,0-1.66.83-1.66,2.48s.73,2.46,1.66,2.46h0ZM559.83,103.16c1.48,0,2.38,1.26,2.38,3.09s-1.02,3.09-2.38,3.09c-1.64,0-2.38-1.45-2.38-3.08,0-1.87,1-3.1,2.38-3.1h0Z"/>
        <polygon class="st9" points="566.24 106.34 565.72 106.97 565.72 109.21 565.02 109.21 565.02 103.3 565.72 103.3 565.72 106.05 567.97 103.3 568.79 103.3 566.68 105.83 568.93 109.21 568.08 109.21 566.24 106.34 566.24 106.34"/>
        <polygon class="st9" points="574.18 103.94 572.14 103.94 572.14 105.83 574.1 105.83 574.1 106.47 572.14 106.47 572.14 108.57 574.25 108.57 574.25 109.21 571.45 109.21 571.45 103.3 574.18 103.3 574.18 103.94 574.18 103.94"/>
        <path class="st9" d="M578.67,103.94h-.79v2.15h.84c.68,0,1-.47,1-1.06,0-.72-.38-1.09-1.05-1.09h0ZM580.82,109.21h-.78l-1.46-2.48h-.69v2.48h-.69v-5.91h1.53c1.29,0,1.71.92,1.71,1.73s-.53,1.45-1.13,1.61l1.52,2.56h0Z"/>
        <path class="st9" d="M584.32,106.97h1.73l-.51-1.68c-.1-.32-.23-.79-.33-1.13h-.03c-.1.36-.22.81-.32,1.14l-.54,1.67h0ZM584.91,103.3h.63l1.95,5.91h-.75l-.48-1.6h-2.12l-.51,1.6h-.72l2.01-5.91h0Z"/>
        <path class="st9" d="M594.28,106.06v.07c0,2.03-.75,3.21-2.23,3.21s-2.42-1.26-2.42-3.09.98-3.09,2.39-3.09c1.11,0,1.97.6,2.11,1.65h-.71c-.09-.64-.61-1.03-1.32-1.03-1.12,0-1.75.89-1.75,2.41,0,1.72.7,2.53,1.71,2.53.94,0,1.49-.76,1.52-2.02h-1.76v-.64h2.47Z"/>
        <polygon class="st9" points="599.81 103.94 597.77 103.94 597.77 105.83 599.72 105.83 599.72 106.47 597.77 106.47 597.77 108.57 599.88 108.57 599.88 109.21 597.07 109.21 597.07 103.3 599.81 103.3 599.81 103.94 599.81 103.94"/>
        <polygon class="st9" points="514.16 84.05 510.11 84.05 510.11 82.16 520.53 82.16 520.53 84.05 516.31 84.05 516.31 95.63 514.16 95.63 514.16 84.05 514.16 84.05"/>
        <polygon class="st9" points="525.08 82.16 533.61 82.16 533.61 84.05 527.23 84.05 527.23 87.88 532.54 87.88 532.54 89.75 527.23 89.75 527.23 93.74 533.61 93.74 533.61 95.63 525.08 95.63 525.08 82.16 525.08 82.16"/>
        <path class="st9" d="M543.64,84.65l-2.28,6.06h4.59l-2.31-6.06h0ZM539.55,95.63h-2.33l5.53-13.47h1.95l5.44,13.47h-2.33l-1.27-3.19h-5.75l-1.24,3.19h0Z"/>
        <polygon class="st9" points="553.36 95.63 553.36 82.16 556.31 82.16 560.5 92.59 564.63 82.16 567.56 82.16 567.56 95.63 565.58 95.63 565.63 84.27 561.17 95.63 559.77 95.63 555.31 84.27 555.36 95.63 553.36 95.63 553.36 95.63"/>
        <path class="st9" d="M570.97,93.59h-.31v.54h.3c.24,0,.35-.1.35-.27,0-.12-.05-.27-.34-.27h0ZM571.72,94.98h-.29l-.5-.65h-.26v.65h-.26v-1.62h.57c.44,0,.6.25.6.49,0,.25-.17.42-.39.46l.52.67h0ZM570.96,95.39c.65,0,1.19-.54,1.19-1.2s-.54-1.2-1.19-1.2-1.21.54-1.21,1.2.55,1.2,1.21,1.2h0ZM570.96,92.75c.79,0,1.43.65,1.43,1.44s-.64,1.43-1.43,1.43-1.44-.64-1.44-1.43.65-1.44,1.44-1.44h0Z"/>
      </g>
      <text class="st13" transform="translate(540 1290.86)" id="city" text-anchor="middle"><tspan x="0" y="0">ORO-MEDONTE</tspan></text>
    </g>
  </g>
</svg>